@startuml

hide circle
hide empty members


abstract class BaseRecordFactory

class CarRecordFactory
class CircuitRecordFactory
class ConstructorRecordFactory
class DriverRecordFactory
class DriversChampionshipsRecordFactory
class EngineManufacturerRecordFactory
class EventRecordFactory
class FatalityRecordFactory
class GrandsPrixRecordFactory
class SeasonRecordFactory
class SeasonSummaryRecordFactory
class SpecialDriverRecordFactory


BaseRecordFactory <|-- CarRecordFactory
BaseRecordFactory <|-- CircuitRecordFactory
BaseRecordFactory <|-- ConstructorRecordFactory
BaseRecordFactory <|-- DriverRecordFactory
BaseRecordFactory <|-- DriversChampionshipsRecordFactory
BaseRecordFactory <|-- EngineManufacturerRecordFactory
BaseRecordFactory <|-- EventRecordFactory
BaseRecordFactory <|-- FatalityRecordFactory
BaseRecordFactory <|-- GrandsPrixRecordFactory
BaseRecordFactory <|-- SeasonRecordFactory
BaseRecordFactory <|-- SeasonSummaryRecordFactory
BaseRecordFactory <|-- SpecialDriverRecordFactory

@enduml
