@startuml

hide circle
hide empty members

abstract class Exception

abstract class RuntimeError


class RequestError

class ScraperError
class HttpShimError

class PipelineError

class HTTPError
class HTTPTimeoutError
class DomainParseError
class ScraperNetworkError
class ScraperNotFoundError
class ScraperParseError
class ScraperValidationError
class SourceParseError
class TransportError
class ValidationError
class MissingSectionError


Exception <|-- RuntimeError
Exception <|-- RequestError


RuntimeError <|-- ScraperError
RuntimeError <|-- MissingSectionError

RequestError <|-- HttpShimError


HttpShimError <|-- HTTPError
HttpShimError <|-- HTTPTimeoutError

ScraperError <|-- DomainParseError
ScraperError <|-- PipelineError
ScraperError <|-- ScraperNetworkError
ScraperError <|-- ScraperNotFoundError
ScraperError <|-- ScraperParseError
ScraperError <|-- ScraperValidationError


PipelineError <|-- SourceParseError
PipelineError <|-- TransportError
PipelineError <|-- ValidationError

@enduml
