@startuml
title Miscellaneous Parser Utilities
skinparam classAttributeIconSize 0
hide empty members
hide circle

class ActiveYearsParser
class ArticleTablesAssembler
abstract class AssemblerABC
abstract class BaseRecordAssembler
class BestFinishParser
class CallableInfoboxFieldParser
class CarNumbersParser
class CategoryLinksParser
class ChampionshipsParser
class CircuitInfoboxParser
class CircuitRecordAssembler
class ConstructorRecordAssembler
class DriverInfoboxParser
class DriverRecordAssembler
class FigureElementParser
class FinishedSeasonParser
class IndianapolisConstructorsListParser
class IndianapolisOnlyListParser
class InfoboxCareerParser
class InfoboxCellValueExtractor
abstract class InfoboxHtmlFieldParserABC
abstract class InfoboxRowsParserABC
class InfoboxTitlesParser
class LicenceParser
class ListElementParser
class NationalityParser
class NavboxElementParser
class ParagraphElementParser
class PrivateerTeamsListParser
class RaceEventParser
class SeasonRecordAssembler
class SeasonStandingsParser
class SectionAssembler
class SpecialCasesSubSubSectionRouter
class SponsorPartsParser
class TeamsParser
class WikiInfoboxHtmlParser
class WikiReferencesElementParser
class YearParser

InfoboxHtmlFieldParserABC <|-- ActiveYearsParser
AssemblerABC <|-- ArticleTablesAssembler
AssemblerABC <|-- BaseRecordAssembler
InfoboxHtmlFieldParserABC <|-- BestFinishParser
InfoboxHtmlFieldParserABC <|-- CallableInfoboxFieldParser
InfoboxHtmlFieldParserABC <|-- CarNumbersParser
InfoboxHtmlFieldParserABC <|-- ChampionshipsParser
BaseRecordAssembler <|-- CircuitRecordAssembler
BaseRecordAssembler <|-- ConstructorRecordAssembler
BaseRecordAssembler <|-- DriverRecordAssembler
InfoboxHtmlFieldParserABC <|-- FinishedSeasonParser
ListElementParser <|-- IndianapolisConstructorsListParser
ListElementParser <|-- IndianapolisOnlyListParser
InfoboxRowsParserABC <|-- InfoboxCareerParser
InfoboxRowsParserABC <|-- InfoboxTitlesParser
InfoboxHtmlFieldParserABC <|-- LicenceParser
InfoboxHtmlFieldParserABC <|-- NationalityParser
InfoboxHtmlFieldParserABC <|-- RaceEventParser
BaseRecordAssembler <|-- SeasonRecordAssembler
AssemblerABC <|-- SectionAssembler
InfoboxHtmlFieldParserABC <|-- TeamsParser

@enduml